<?xml version="1.0" encoding="UTF-8" standalone="no"?><!DOCTYPE svg PUBLIC "-//W3C//DTD SVG 1.1//EN" "http://www.w3.org/Graphics/SVG/1.1/DTD/svg11.dtd"><svg width="100%" height="100%" viewBox="0 0 1241 19" version="1.1" xmlns="http://www.w3.org/2000/svg" xmlns:xlink="http://www.w3.org/1999/xlink" xml:space="preserve" style="fill-rule:evenodd;clip-rule:evenodd;stroke-linejoin:round;stroke-miterlimit:1.41421;"><g id="color.-bar"><path d="M260.271,-0.015l-260.271,0l0,18.43l234.744,0l25.527,-18.43Z" style="fill:#7aa853;"/><path d="M1089.91,-0.015l150.485,0l0,18.43l-176.427,0l25.942,-18.43Z" style="fill:#616536;"/><path d="M455.808,-0.015l-216.332,0l-23.296,18.43l216.125,0l23.503,-18.43Z" style="fill:#616536;"/><path d="M904.827,-0.015l-251.937,0l-27.13,18.43l251.696,0l27.371,-18.43Z" style="fill:#1b1112;"/><path d="M671.821,-0.015l-216.331,0l-23.296,18.43l216.124,0l23.503,-18.43Z" style="fill:#463720;"/><path d="M1104.01,-0.015l-216.331,0l-23.296,18.43l216.124,0l23.503,-18.43Z" style="fill:#7aa853;"/></g></svg>