<?xml version="1.0" encoding="UTF-8" standalone="no"?>
<!DOCTYPE svg PUBLIC "-//W3C//DTD SVG 1.1//EN" "http://www.w3.org/Graphics/SVG/1.1/DTD/svg11.dtd">
<svg width="100%" height="100%" viewBox="0 0 64 58" version="1.1" xmlns="http://www.w3.org/2000/svg" xmlns:xlink="http://www.w3.org/1999/xlink" xml:space="preserve" style="fill-rule:evenodd;clip-rule:evenodd;stroke-linejoin:round;stroke-miterlimit:1.41421;">
    <g transform="matrix(0.43526,0,0,0.494433,-320.444,-278.927)">
        <path d="M809.388,564.135C841.202,564.135 867.03,589.963 867.03,621.777C867.03,653.59 809.388,679.419 809.388,679.419C809.388,679.419 751.747,653.59 751.747,621.777C751.747,589.963 777.575,564.135 809.388,564.135ZM809.388,588.061C825.224,588.061 838.081,600.917 838.081,616.753C838.081,632.589 825.224,645.446 809.388,645.446C793.553,645.446 780.696,632.589 780.696,616.753C780.696,600.917 793.553,588.061 809.388,588.061Z" style="fill:rgb(55,55,55);"/>
    </g>
</svg>
