<?xml version="1.0" encoding="UTF-8" standalone="no"?><!DOCTYPE svg PUBLIC "-//W3C//DTD SVG 1.1//EN" "http://www.w3.org/Graphics/SVG/1.1/DTD/svg11.dtd"><svg width="100%" height="100%" viewBox="0 0 34 57" version="1.1" xmlns="http://www.w3.org/2000/svg" xmlns:xlink="http://www.w3.org/1999/xlink" xml:space="preserve" style="fill-rule:evenodd;clip-rule:evenodd;stroke-linejoin:round;stroke-miterlimit:1.41421;"><path d="M29.961,57l-26.632,0c-1.837,0 -3.329,-1.492 -3.329,-3.329l0,-50.354c0,-1.837 1.492,-3.329 3.329,-3.329l26.632,0c1.837,0 3.329,1.492 3.329,3.329l0,50.354c0,1.837 -1.492,3.329 -3.329,3.329Zm-13.316,-6.285c1.325,0 2.402,1.076 2.402,2.402c0,1.326 -1.077,2.402 -2.402,2.402c-1.326,0 -2.402,-1.076 -2.402,-2.402c0,-1.326 1.076,-2.402 2.402,-2.402Zm13.316,-42.689l-26.632,0l0,40.652l26.632,0l0,-40.652Zm-0.384,-2.996l-25.864,0l0,0.411l25.864,0l0,-0.411Z" style="fill:#373737;"/></svg>