<?xml version="1.0" encoding="UTF-8" standalone="no"?>
<!DOCTYPE svg PUBLIC "-//W3C//DTD SVG 1.1//EN" "http://www.w3.org/Graphics/SVG/1.1/DTD/svg11.dtd">
<svg width="100%" height="100%" viewBox="0 0 64 53" version="1.1" xmlns="http://www.w3.org/2000/svg" xmlns:xlink="http://www.w3.org/1999/xlink" xml:space="preserve" style="fill-rule:evenodd;clip-rule:evenodd;stroke-linejoin:round;stroke-miterlimit:1.41421;">
    <g transform="matrix(1.37403,0,0,1.2981,-1021.8,-215.099)">
        <path d="M767.399,174.587L771.174,174.587L771.174,184.524L777.928,191.474L775.22,194.106L767.399,185.81L767.399,174.587Z" style="fill:rgb(55,55,55);"/>
        <path d="M754.729,185.81L749.69,185.81C749.69,174.713 758.723,165.704 769.849,165.704C780.975,165.704 790.008,174.713 790.008,185.81C790.008,196.907 780.975,205.917 769.849,205.917C764.325,205.917 759.318,203.696 755.675,200.102L759.599,196.891C762.294,199.373 765.895,200.89 769.849,200.89C778.193,200.89 784.968,194.133 784.968,185.81C784.968,177.487 778.193,170.73 769.849,170.73C761.504,170.73 754.729,177.487 754.729,185.81Z" style="fill:rgb(55,55,55);"/>
        <g transform="matrix(-31.4088,-3.84647e-15,2.76987e-15,-22.6177,24225.8,4677.99)">
            <path d="M747.356,198.117L747.63,198.666L747.081,198.666L747.356,198.117Z" style="fill:rgb(55,55,55);"/>
        </g>
    </g>
</svg>
